<?xml version="1.0" encoding="UTF-8"?>
<svg id="Layer_2" xmlns="http://www.w3.org/2000/svg" viewBox="0 0 168.85 168.85">
  <defs>
    <style>
      .cls-1 {
        fill: #1f1f1f;
      }

      .cls-2 {
        fill: none;
        stroke: #f7f7f7;
        stroke-linecap: round;
        stroke-miterlimit: 10;
        stroke-width: 21px;
      }
    </style>
  </defs>
  <g id="Layer_1-2" data-name="Layer_1">
    <g>
      <rect class="cls-1" width="168.85" height="168.85" rx="12.3" ry="12.3"/>
      <path class="cls-2" d="M21.47,84.03c-.94,15.42-1.69,31.77,5.66,45.36,3.07,5.68,7.7,10.77,13.73,13.06s13.57,1.21,17.83-3.63c3.58-4.06,4.34-9.82,4.74-15.22.74-9.9.82-19.86.23-29.77"/>
      <path class="cls-2" d="M147.85,50.11c1.02-9.17-4.46-18.69-12.91-22.41-4.09-1.8-8.62-2.3-13.07-2.78-11.38-1.23-25.73-.91-30.64,9.43-2.89,6.09-.94,13.54,2.87,19.1s9.26,9.75,14.2,14.34c6.72,6.25,12.62,13.35,17.82,20.91,5.37,7.79,10.11,16.33,11.38,25.7s-1.48,19.74-8.89,25.61-19.71,5.51-25.33-2.09c-4.01-5.42-3.92-12.93-2.03-19.41"/>
    </g>
  </g>
</svg>