<svg width="40" height="36" viewBox="0 0 40 36" fill="none" xmlns="http://www.w3.org/2000/svg">
<path d="M25.1564 18.5032C26.6667 17.4674 28.5221 16.8201 30.507 16.8201C35.7282 16.8201 40 21.0496 40 26.315C40 31.5804 35.7713 35.8099 30.507 35.8099C30.507 35.8099 26.2783 36.5436 21.4455 30.674L24.0345 27.7392C27.1845 32.2709 30.5933 31.9256 30.5933 31.9256C33.657 31.9256 36.1597 29.4224 36.1597 26.3581C36.1597 23.2939 33.657 20.7907 30.5933 20.7907C28.0906 20.7907 24.9407 23.6823 23.4304 25.4518C17.6483 32.1414 15.7929 33.4793 15.7929 33.4793C14.11 34.9036 11.9525 35.8099 9.57929 35.8099C4.35814 35.8099 0.0862999 31.5804 0.0862999 26.315C0.0862999 21.0496 4.315 16.8201 9.57929 16.8201C11.5642 16.8201 13.4196 17.4674 14.9299 18.5032V9.56938C14.9299 6.50511 12.4272 4.0019 9.36354 4.0019C6.77454 4.0019 4.57389 5.77141 3.9698 8.1883H0C0.690399 3.65663 4.66019 0.160767 9.36354 0.160767C14.5847 0.160767 18.8565 4.39033 18.8565 9.6557C18.8565 9.74201 18.8565 9.78517 18.8565 9.87149V21.6538L16.1812 24.6318C14.7141 22.8623 11.9957 20.7043 9.49299 20.7043C6.42934 20.7043 3.92665 23.2076 3.92665 26.2718C3.92665 29.3361 6.42934 31.8825 9.49299 31.8825C10.8738 31.8825 12.0388 31.2782 13.1176 30.5014C13.1176 30.5014 15.1888 28.9908 17.9072 25.7539C20.6257 22.517 23.4736 19.4096 25.1564 18.5032Z" fill="#1F1F1F"/>
<path d="M25.0701 16.0432V9.56938C25.0701 6.50511 27.5728 4.0019 30.6365 4.0019C33.2255 4.0019 35.4261 5.77141 36.0302 8.1883H40C39.3096 3.65663 35.383 0.160767 30.6365 0.160767C25.3722 0.160767 21.1435 4.43348 21.1435 9.6557C21.1435 9.74201 21.1435 9.78517 21.1435 9.87149V19.3664C21.1435 19.3664 22.3085 17.8127 25.0701 16.0432Z" fill="#1F1F1F"/>
</svg>
