<svg width="96" height="36" viewBox="0 0 96 36" fill="none" xmlns="http://www.w3.org/2000/svg">
<path d="M25.1564 18.5032C26.6667 17.4674 28.5221 16.8201 30.507 16.8201C35.7282 16.8201 40 21.0496 40 26.315C40 31.5804 35.7713 35.8099 30.507 35.8099C30.507 35.8099 26.2783 36.5436 21.4455 30.674L24.0345 27.7392C27.1845 32.2709 30.5933 31.9256 30.5933 31.9256C33.657 31.9256 36.1597 29.4224 36.1597 26.3581C36.1597 23.2939 33.657 20.7907 30.5933 20.7907C28.0906 20.7907 24.9407 23.6823 23.4304 25.4518C17.6483 32.1414 15.7929 33.4793 15.7929 33.4793C14.11 34.9036 11.9525 35.8099 9.57929 35.8099C4.35814 35.8099 0.0862999 31.5804 0.0862999 26.315C0.0862999 21.0496 4.315 16.8201 9.57929 16.8201C11.5642 16.8201 13.4196 17.4674 14.9299 18.5032V9.56938C14.9299 6.50511 12.4272 4.0019 9.36354 4.0019C6.77454 4.0019 4.57389 5.77141 3.9698 8.1883H0C0.690399 3.65663 4.66019 0.160767 9.36354 0.160767C14.5847 0.160767 18.8565 4.39033 18.8565 9.6557C18.8565 9.74201 18.8565 9.78517 18.8565 9.87149V21.6538L16.1812 24.6318C14.7141 22.8623 11.9957 20.7043 9.49299 20.7043C6.42934 20.7043 3.92665 23.2076 3.92665 26.2718C3.92665 29.3361 6.42934 31.8825 9.49299 31.8825C10.8738 31.8825 12.0388 31.2782 13.1176 30.5014C13.1176 30.5014 15.1888 28.9908 17.9072 25.7539C20.6257 22.517 23.4736 19.4096 25.1564 18.5032Z" fill="#1F1F1F"/>
<path d="M25.0701 16.0432V9.56938C25.0701 6.50511 27.5728 4.0019 30.6365 4.0019C33.2255 4.0019 35.4261 5.77141 36.0302 8.1883H40C39.3096 3.65663 35.383 0.160767 30.6365 0.160767C25.3722 0.160767 21.1435 4.43348 21.1435 9.6557C21.1435 9.74201 21.1435 9.78517 21.1435 9.87149V19.3664C21.1435 19.3664 22.3085 17.8127 25.0701 16.0432Z" fill="#1F1F1F"/>
<path d="M51.321 16.179C50.8371 16.179 50.398 16.0878 50.0036 15.9055C49.6091 15.7199 49.2959 15.4531 49.0639 15.1051C48.8319 14.7538 48.7159 14.3295 48.7159 13.8324C48.7159 13.3949 48.8021 13.0402 48.9744 12.7685C49.1468 12.4934 49.3771 12.2779 49.6655 12.1222C49.9538 11.9664 50.272 11.8504 50.62 11.7741C50.9714 11.6946 51.3243 11.6316 51.679 11.5852C52.143 11.5256 52.5192 11.4808 52.8075 11.451C53.0992 11.4179 53.3113 11.3632 53.4439 11.2869C53.5798 11.2107 53.6477 11.0781 53.6477 10.8892V10.8494C53.6477 10.3589 53.5135 9.97775 53.245 9.70597C52.9799 9.43419 52.5772 9.2983 52.0369 9.2983C51.4768 9.2983 51.0376 9.42093 50.7195 9.66619C50.4013 9.91146 50.1776 10.1733 50.0483 10.4517L48.9347 10.054C49.1335 9.58996 49.3987 9.22869 49.7301 8.97017C50.0649 8.70833 50.4295 8.52604 50.8239 8.4233C51.2216 8.31723 51.6127 8.2642 51.9972 8.2642C52.2424 8.2642 52.5241 8.29403 52.8423 8.35369C53.1638 8.41004 53.4737 8.5277 53.772 8.70668C54.0736 8.88565 54.3239 9.15578 54.5227 9.51705C54.7216 9.87831 54.821 10.3622 54.821 10.9688V16H53.6477V14.9659H53.5881C53.5085 15.1316 53.3759 15.3089 53.1903 15.4979C53.0047 15.6868 52.7578 15.8475 52.4496 15.9801C52.1413 16.1127 51.7652 16.179 51.321 16.179ZM51.5 15.125C51.964 15.125 52.3551 15.0339 52.6733 14.8516C52.9948 14.6693 53.2367 14.4339 53.3991 14.1456C53.5649 13.8572 53.6477 13.554 53.6477 13.2358V12.1619C53.598 12.2216 53.4886 12.2763 53.3196 12.326C53.1539 12.3724 52.9616 12.4138 52.7429 12.4503C52.5275 12.4834 52.317 12.5133 52.1115 12.5398C51.9093 12.563 51.7453 12.5829 51.6193 12.5994C51.3144 12.6392 51.0294 12.7038 50.7642 12.7933C50.5024 12.8795 50.2902 13.0104 50.1278 13.1861C49.9688 13.3584 49.8892 13.5937 49.8892 13.892C49.8892 14.2997 50.04 14.608 50.3416 14.8168C50.6465 15.0223 51.0327 15.125 51.5 15.125ZM58.4158 11.4062V16H57.2425V8.36364H58.3761V9.55682H58.4755C58.6545 9.16903 58.9262 8.85748 59.2908 8.62216C59.6554 8.38352 60.1261 8.2642 60.7028 8.2642C61.2198 8.2642 61.6722 8.37027 62.06 8.58239C62.4478 8.79119 62.7494 9.10938 62.9648 9.53693C63.1803 9.96117 63.288 10.4981 63.288 11.1477V16H62.1147V11.2273C62.1147 10.6274 61.9589 10.16 61.6474 9.82528C61.3358 9.48722 60.9083 9.31818 60.3647 9.31818C59.9902 9.31818 59.6554 9.39938 59.3604 9.56179C59.0688 9.72419 58.8384 9.96117 58.6694 10.2727C58.5003 10.5843 58.4158 10.9621 58.4158 11.4062ZM68.5955 16.1591C67.9591 16.1591 67.3974 15.9983 66.9101 15.6768C66.4229 15.352 66.0418 14.8946 65.7667 14.3047C65.4916 13.7114 65.354 13.0104 65.354 12.2017C65.354 11.3996 65.4916 10.7036 65.7667 10.1136C66.0418 9.52367 66.4246 9.06794 66.9151 8.74645C67.4056 8.42495 67.9724 8.2642 68.6154 8.2642C69.1126 8.2642 69.5053 8.34706 69.7937 8.51278C70.0853 8.67519 70.3074 8.8608 70.4599 9.0696C70.6156 9.27509 70.7366 9.44413 70.8228 9.5767H70.9222V5.81818H72.0955V16H70.962V14.8267H70.8228C70.7366 14.9659 70.614 15.1416 70.4549 15.3537C70.2958 15.5625 70.0688 15.7498 69.7738 15.9155C69.4788 16.0779 69.086 16.1591 68.5955 16.1591ZM68.7546 15.1051C69.2252 15.1051 69.623 14.9825 69.9478 14.7372C70.2726 14.4886 70.5195 14.1456 70.6886 13.7081C70.8576 13.2673 70.9421 12.7585 70.9421 12.1818C70.9421 11.6117 70.8592 11.1129 70.6935 10.6854C70.5278 10.2545 70.2825 9.91974 69.9577 9.68111C69.6329 9.43916 69.2319 9.31818 68.7546 9.31818C68.2574 9.31818 67.8431 9.44579 67.5117 9.70099C67.1836 9.95289 66.9367 10.2959 66.7709 10.7301C66.6085 11.161 66.5273 11.6449 66.5273 12.1818C66.5273 12.7254 66.6102 13.2192 66.7759 13.6634C66.9449 14.1042 67.1935 14.4555 67.5216 14.7173C67.8531 14.9759 68.2641 15.1051 68.7546 15.1051ZM74.6873 16V8.36364H75.8208V9.51705H75.9004C76.0396 9.1392 76.2915 8.83262 76.6561 8.5973C77.0206 8.36198 77.4316 8.24432 77.889 8.24432C77.9752 8.24432 78.0829 8.24597 78.2122 8.24929C78.3414 8.2526 78.4392 8.25758 78.5055 8.2642V9.45739C78.4657 9.44744 78.3746 9.43253 78.232 9.41264C78.0928 9.38944 77.9454 9.37784 77.7896 9.37784C77.4184 9.37784 77.0869 9.45573 76.7953 9.61151C76.5069 9.76397 76.2782 9.97609 76.1092 10.2479C75.9435 10.5163 75.8606 10.8229 75.8606 11.1676V16H74.6873ZM83.1456 16.1591C82.4098 16.1591 81.7751 15.9967 81.2414 15.6719C80.7111 15.3438 80.3018 14.8864 80.0135 14.2997C79.7284 13.7098 79.5859 13.0237 79.5859 12.2415C79.5859 11.4593 79.7284 10.7699 80.0135 10.1733C80.3018 9.57339 80.7029 9.10606 81.2166 8.77131C81.7336 8.43324 82.3369 8.2642 83.0263 8.2642C83.424 8.2642 83.8167 8.33049 84.2045 8.46307C84.5923 8.59564 84.9453 8.81108 85.2635 9.10938C85.5816 9.40436 85.8352 9.79545 86.0241 10.2827C86.213 10.7699 86.3075 11.3698 86.3075 12.0824V12.5795H80.4211V11.5653H85.1143C85.1143 11.1345 85.0281 10.75 84.8558 10.4119C84.6868 10.0739 84.4448 9.80705 84.1299 9.61151C83.8184 9.41596 83.4505 9.31818 83.0263 9.31818C82.5589 9.31818 82.1546 9.43419 81.8132 9.66619C81.4751 9.89489 81.2149 10.1932 81.0326 10.5611C80.8504 10.929 80.7592 11.3234 80.7592 11.7443V12.4205C80.7592 12.9972 80.8586 13.486 81.0575 13.8871C81.2597 14.2848 81.5397 14.5881 81.8977 14.7969C82.2557 15.0024 82.6716 15.1051 83.1456 15.1051C83.4538 15.1051 83.7322 15.062 83.9808 14.9759C84.2327 14.8864 84.4498 14.7538 84.6321 14.5781C84.8144 14.3991 84.9552 14.1771 85.0547 13.9119L86.1882 14.2301C86.0689 14.6146 85.8683 14.9527 85.5866 15.2443C85.3049 15.5327 84.9569 15.758 84.5426 15.9205C84.1283 16.0795 83.6626 16.1591 83.1456 16.1591ZM90.6195 16.179C90.1356 16.179 89.6964 16.0878 89.302 15.9055C88.9076 15.7199 88.5944 15.4531 88.3624 15.1051C88.1304 14.7538 88.0143 14.3295 88.0143 13.8324C88.0143 13.3949 88.1005 13.0402 88.2729 12.7685C88.4452 12.4934 88.6756 12.2779 88.9639 12.1222C89.2523 11.9664 89.5705 11.8504 89.9185 11.7741C90.2698 11.6946 90.6228 11.6316 90.9774 11.5852C91.4414 11.5256 91.8176 11.4808 92.106 11.451C92.3976 11.4179 92.6098 11.3632 92.7423 11.2869C92.8782 11.2107 92.9462 11.0781 92.9462 10.8892V10.8494C92.9462 10.3589 92.8119 9.97775 92.5435 9.70597C92.2783 9.43419 91.8756 9.2983 91.3354 9.2983C90.7752 9.2983 90.3361 9.42093 90.0179 9.66619C89.6997 9.91146 89.476 10.1733 89.3467 10.4517L88.2331 10.054C88.432 9.58996 88.6971 9.22869 89.0286 8.97017C89.3633 8.70833 89.7279 8.52604 90.1223 8.4233C90.52 8.31723 90.9111 8.2642 91.2956 8.2642C91.5409 8.2642 91.8226 8.29403 92.1408 8.35369C92.4623 8.41004 92.7722 8.5277 93.0705 8.70668C93.3721 8.88565 93.6223 9.15578 93.8212 9.51705C94.02 9.87831 94.1195 10.3622 94.1195 10.9688V16H92.9462V14.9659H92.8865C92.807 15.1316 92.6744 15.3089 92.4888 15.4979C92.3032 15.6868 92.0563 15.8475 91.748 15.9801C91.4398 16.1127 91.0636 16.179 90.6195 16.179ZM90.7984 15.125C91.2625 15.125 91.6536 15.0339 91.9717 14.8516C92.2932 14.6693 92.5352 14.4339 92.6976 14.1456C92.8633 13.8572 92.9462 13.554 92.9462 13.2358V12.1619C92.8965 12.2216 92.7871 12.2763 92.618 12.326C92.4523 12.3724 92.2601 12.4138 92.0413 12.4503C91.8259 12.4834 91.6154 12.5133 91.4099 12.5398C91.2078 12.563 91.0437 12.5829 90.9178 12.5994C90.6128 12.6392 90.3278 12.7038 90.0626 12.7933C89.8008 12.8795 89.5887 13.0104 89.4263 13.1861C89.2672 13.3584 89.1876 13.5937 89.1876 13.892C89.1876 14.2997 89.3384 14.608 89.6401 14.8168C89.945 15.0223 90.3311 15.125 90.7984 15.125ZM54.483 24.0739L53.429 24.3722C53.3627 24.1965 53.2649 24.0258 53.1357 23.8601C53.0097 23.6911 52.8374 23.5518 52.6186 23.4425C52.3999 23.3331 52.1198 23.2784 51.7784 23.2784C51.3111 23.2784 50.9216 23.3861 50.6101 23.6016C50.3018 23.8137 50.1477 24.0838 50.1477 24.4119C50.1477 24.7036 50.2538 24.9339 50.4659 25.103C50.678 25.272 51.0095 25.4129 51.4602 25.5256L52.5938 25.804C53.2765 25.9697 53.7853 26.2232 54.12 26.5646C54.4548 26.9027 54.6222 27.3385 54.6222 27.8722C54.6222 28.3097 54.4962 28.7008 54.2443 29.0455C53.9957 29.3902 53.6477 29.6619 53.2003 29.8608C52.7528 30.0597 52.2325 30.1591 51.6392 30.1591C50.8603 30.1591 50.2157 29.9901 49.7053 29.652C49.1948 29.3139 48.8717 28.8201 48.7358 28.1705L49.8494 27.892C49.9555 28.303 50.156 28.6113 50.451 28.8168C50.7493 29.0223 51.1387 29.125 51.6193 29.125C52.1662 29.125 52.6004 29.009 52.9219 28.777C53.2467 28.5417 53.4091 28.2599 53.4091 27.9318C53.4091 27.6667 53.3163 27.4446 53.1307 27.2656C52.9451 27.0833 52.66 26.9474 52.2756 26.858L51.0028 26.5597C50.3035 26.3939 49.7898 26.1371 49.4616 25.7891C49.1368 25.4377 48.9744 24.9986 48.9744 24.4716C48.9744 24.0407 49.0954 23.6596 49.3374 23.3281C49.5826 22.9967 49.9157 22.7365 50.3366 22.5476C50.7609 22.3587 51.2415 22.2642 51.7784 22.2642C52.5341 22.2642 53.1274 22.4299 53.5582 22.7614C53.9924 23.0928 54.3007 23.5303 54.483 24.0739ZM56.6683 30V22.3636H57.8416V30H56.6683ZM57.2649 21.0909C57.0362 21.0909 56.839 21.013 56.6733 20.8572C56.5109 20.7015 56.4297 20.5142 56.4297 20.2955C56.4297 20.0767 56.5109 19.8894 56.6733 19.7337C56.839 19.5779 57.0362 19.5 57.2649 19.5C57.4936 19.5 57.6892 19.5779 57.8516 19.7337C58.0173 19.8894 58.1001 20.0767 58.1001 20.2955C58.1001 20.5142 58.0173 20.7015 57.8516 20.8572C57.6892 21.013 57.4936 21.0909 57.2649 21.0909ZM60.2706 30V22.3636H61.4041V23.517H61.4837C61.6229 23.1392 61.8747 22.8326 62.2393 22.5973C62.6039 22.362 63.0149 22.2443 63.4723 22.2443C63.5585 22.2443 63.6662 22.246 63.7954 22.2493C63.9247 22.2526 64.0225 22.2576 64.0888 22.2642V23.4574C64.049 23.4474 63.9578 23.4325 63.8153 23.4126C63.6761 23.3894 63.5286 23.3778 63.3729 23.3778C63.0016 23.3778 62.6702 23.4557 62.3785 23.6115C62.0902 23.764 61.8615 23.9761 61.6925 24.2479C61.5267 24.5163 61.4439 24.8229 61.4439 25.1676V30H60.2706ZM68.7288 30.1591C67.9931 30.1591 67.3583 29.9967 66.8247 29.6719C66.2944 29.3438 65.8851 28.8864 65.5967 28.2997C65.3117 27.7098 65.1692 27.0237 65.1692 26.2415C65.1692 25.4593 65.3117 24.7699 65.5967 24.1733C65.8851 23.5734 66.2861 23.1061 66.7999 22.7713C67.3169 22.4332 67.9201 22.2642 68.6095 22.2642C69.0073 22.2642 69.4 22.3305 69.7878 22.4631C70.1756 22.5956 70.5286 22.8111 70.8467 23.1094C71.1649 23.4044 71.4185 23.7955 71.6074 24.2827C71.7963 24.7699 71.8908 25.3698 71.8908 26.0824V26.5795H66.0044V25.5653H70.6976C70.6976 25.1345 70.6114 24.75 70.4391 24.4119C70.27 24.0739 70.0281 23.8071 69.7132 23.6115C69.4017 23.416 69.0338 23.3182 68.6095 23.3182C68.1422 23.3182 67.7378 23.4342 67.3965 23.6662C67.0584 23.8949 66.7982 24.1932 66.6159 24.5611C66.4336 24.929 66.3425 25.3234 66.3425 25.7443V26.4205C66.3425 26.9972 66.4419 27.486 66.6408 27.8871C66.843 28.2848 67.123 28.5881 67.481 28.7969C67.8389 29.0024 68.2549 29.1051 68.7288 29.1051C69.0371 29.1051 69.3155 29.062 69.5641 28.9759C69.816 28.8864 70.0331 28.7538 70.2154 28.5781C70.3976 28.3991 70.5385 28.1771 70.6379 27.9119L71.7715 28.2301C71.6521 28.6146 71.4516 28.9527 71.1699 29.2443C70.8882 29.5327 70.5402 29.758 70.1259 29.9205C69.7116 30.0795 69.2459 30.1591 68.7288 30.1591ZM75.1289 25.4062V30H73.9556V22.3636H75.0891V23.5568H75.1885C75.3675 23.169 75.6393 22.8575 76.0039 22.6222C76.3685 22.3835 76.8391 22.2642 77.4158 22.2642C77.9329 22.2642 78.3853 22.3703 78.7731 22.5824C79.1608 22.7912 79.4624 23.1094 79.6779 23.5369C79.8933 23.9612 80.001 24.4981 80.001 25.1477V30H78.8277V25.2273C78.8277 24.6274 78.672 24.16 78.3604 23.8253C78.0489 23.4872 77.6213 23.3182 77.0777 23.3182C76.7032 23.3182 76.3685 23.3994 76.0735 23.5618C75.7818 23.7242 75.5515 23.9612 75.3824 24.2727C75.2134 24.5843 75.1289 24.9621 75.1289 25.4062ZM84.6722 30.179C84.1883 30.179 83.7491 30.0878 83.3547 29.9055C82.9603 29.7199 82.6471 29.4531 82.4151 29.1051C82.1831 28.7538 82.0671 28.3295 82.0671 27.8324C82.0671 27.3949 82.1533 27.0402 82.3256 26.7685C82.498 26.4934 82.7283 26.2779 83.0167 26.1222C83.305 25.9664 83.6232 25.8504 83.9712 25.7741C84.3225 25.6946 84.6755 25.6316 85.0302 25.5852C85.4942 25.5256 85.8703 25.4808 86.1587 25.451C86.4504 25.4179 86.6625 25.3632 86.7951 25.2869C86.931 25.2107 86.9989 25.0781 86.9989 24.8892V24.8494C86.9989 24.3589 86.8647 23.9777 86.5962 23.706C86.3311 23.4342 85.9284 23.2983 85.3881 23.2983C84.828 23.2983 84.3888 23.4209 84.0706 23.6662C83.7525 23.9115 83.5287 24.1733 83.3995 24.4517L82.2858 24.054C82.4847 23.59 82.7498 23.2287 83.0813 22.9702C83.416 22.7083 83.7806 22.526 84.175 22.4233C84.5728 22.3172 84.9639 22.2642 85.3483 22.2642C85.5936 22.2642 85.8753 22.294 86.1935 22.3537C86.515 22.41 86.8249 22.5277 87.1232 22.7067C87.4248 22.8857 87.675 23.1558 87.8739 23.517C88.0728 23.8783 88.1722 24.3622 88.1722 24.9688V30H86.9989V28.9659H86.9392C86.8597 29.1316 86.7271 29.3089 86.5415 29.4979C86.3559 29.6868 86.109 29.8475 85.8007 29.9801C85.4925 30.1127 85.1163 30.179 84.6722 30.179ZM84.8512 29.125C85.3152 29.125 85.7063 29.0339 86.0245 28.8516C86.346 28.6693 86.5879 28.4339 86.7503 28.1456C86.916 27.8572 86.9989 27.554 86.9989 27.2358V26.1619C86.9492 26.2216 86.8398 26.2763 86.6708 26.326C86.5051 26.3724 86.3128 26.4138 86.0941 26.4503C85.8786 26.4834 85.6682 26.5133 85.4627 26.5398C85.2605 26.563 85.0964 26.5829 84.9705 26.5994C84.6656 26.6392 84.3805 26.7038 84.1154 26.7933C83.8535 26.8795 83.6414 27.0104 83.479 27.1861C83.3199 27.3584 83.2404 27.5937 83.2404 27.892C83.2404 28.2997 83.3912 28.608 83.6928 28.8168C83.9977 29.0223 84.3838 29.125 84.8512 29.125Z" fill="black"/>
</svg>
